<svg width="366" height="62" viewBox="0 0 366 62" fill="none" xmlns="http://www.w3.org/2000/svg">
<rect x="294" y="42" width="38" height="20" rx="8" fill="#6F6F6F"/>
<path d="M77.8125 57H83.9951V55.8066H79.7549V55.7305L81.6211 53.8389C83.3477 52.144 83.8301 51.3252 83.8428 50.2969C83.8301 48.8052 82.605 47.6816 80.834 47.6816C79.082 47.6816 77.7998 48.7925 77.8125 50.4746H79.1328C79.1392 49.4971 79.7866 48.8496 80.8086 48.8496C81.7734 48.8496 82.5098 49.4272 82.5098 50.335C82.5098 51.1411 82.0083 51.7251 80.999 52.7725L77.8125 55.9844V57ZM88.7432 57.127C90.8696 57.127 92.1138 55.4131 92.1201 52.4043C92.1138 49.4146 90.8506 47.6816 88.7432 47.6816C86.6294 47.6816 85.3662 49.4146 85.3662 52.4043C85.3662 55.4131 86.6167 57.127 88.7432 57.127ZM86.7627 52.4043C86.7627 50.1191 87.5054 48.8687 88.7432 48.8623C89.9746 48.8687 90.7236 50.1191 90.7236 52.4043C90.7236 54.6958 89.981 55.9209 88.7432 55.9209C87.499 55.9209 86.7563 54.6958 86.7627 52.4043ZM93.5674 57H99.75V55.8066H95.5098V55.7305L97.376 53.8389C99.1025 52.144 99.585 51.3252 99.5977 50.2969C99.585 48.8052 98.3599 47.6816 96.5889 47.6816C94.8369 47.6816 93.5547 48.7925 93.5674 50.4746H94.8877C94.894 49.4971 95.5415 48.8496 96.5635 48.8496C97.5283 48.8496 98.2646 49.4272 98.2646 50.335C98.2646 51.1411 97.7632 51.7251 96.7539 52.7725L93.5674 55.9844V57ZM104.498 57.127C106.625 57.127 107.869 55.4131 107.875 52.4043C107.869 49.4146 106.605 47.6816 104.498 47.6816C102.384 47.6816 101.121 49.4146 101.121 52.4043C101.121 55.4131 102.372 57.127 104.498 57.127ZM102.518 52.4043C102.518 50.1191 103.26 48.8687 104.498 48.8623C105.729 48.8687 106.479 50.1191 106.479 52.4043C106.479 54.6958 105.736 55.9209 104.498 55.9209C103.254 55.9209 102.511 54.6958 102.518 52.4043Z" fill="#6F6F6F"/>
<path d="M187.812 57H193.995V55.8066H189.755V55.7305L191.621 53.8389C193.348 52.144 193.83 51.3252 193.843 50.2969C193.83 48.8052 192.605 47.6816 190.834 47.6816C189.082 47.6816 187.8 48.7925 187.812 50.4746H189.133C189.139 49.4971 189.787 48.8496 190.809 48.8496C191.773 48.8496 192.51 49.4272 192.51 50.335C192.51 51.1411 192.008 51.7251 190.999 52.7725L187.812 55.9844V57ZM198.743 57.127C200.87 57.127 202.114 55.4131 202.12 52.4043C202.114 49.4146 200.851 47.6816 198.743 47.6816C196.629 47.6816 195.366 49.4146 195.366 52.4043C195.366 55.4131 196.617 57.127 198.743 57.127ZM196.763 52.4043C196.763 50.1191 197.505 48.8687 198.743 48.8623C199.975 48.8687 200.724 50.1191 200.724 52.4043C200.724 54.6958 199.981 55.9209 198.743 55.9209C197.499 55.9209 196.756 54.6958 196.763 52.4043ZM203.567 57H209.75V55.8066H205.51V55.7305L207.376 53.8389C209.103 52.144 209.585 51.3252 209.598 50.2969C209.585 48.8052 208.36 47.6816 206.589 47.6816C204.837 47.6816 203.555 48.7925 203.567 50.4746H204.888C204.894 49.4971 205.542 48.8496 206.563 48.8496C207.528 48.8496 208.265 49.4272 208.265 50.335C208.265 51.1411 207.763 51.7251 206.754 52.7725L203.567 55.9844V57ZM214.79 47.8086H213.419L211.134 49.3066V50.6396L213.33 49.2051H213.381V57H214.79V47.8086Z" fill="#6F6F6F"/>
<path d="M297.812 57H303.995V55.8066H299.755V55.7305L301.621 53.8389C303.348 52.144 303.83 51.3252 303.843 50.2969C303.83 48.8052 302.605 47.6816 300.834 47.6816C299.082 47.6816 297.8 48.7925 297.812 50.4746H299.133C299.139 49.4971 299.787 48.8496 300.809 48.8496C301.773 48.8496 302.51 49.4272 302.51 50.335C302.51 51.1411 302.008 51.7251 300.999 52.7725L297.812 55.9844V57ZM308.743 57.127C310.87 57.127 312.114 55.4131 312.12 52.4043C312.114 49.4146 310.851 47.6816 308.743 47.6816C306.629 47.6816 305.366 49.4146 305.366 52.4043C305.366 55.4131 306.617 57.127 308.743 57.127ZM306.763 52.4043C306.763 50.1191 307.505 48.8687 308.743 48.8623C309.975 48.8687 310.724 50.1191 310.724 52.4043C310.724 54.6958 309.981 55.9209 308.743 55.9209C307.499 55.9209 306.756 54.6958 306.763 52.4043ZM313.567 57H319.75V55.8066H315.51V55.7305L317.376 53.8389C319.103 52.144 319.585 51.3252 319.598 50.2969C319.585 48.8052 318.36 47.6816 316.589 47.6816C314.837 47.6816 313.555 48.7925 313.567 50.4746H314.888C314.894 49.4971 315.542 48.8496 316.563 48.8496C317.528 48.8496 318.265 49.4272 318.265 50.335C318.265 51.1411 317.763 51.7251 316.754 52.7725L313.567 55.9844V57ZM321.299 57H327.481V55.8066H323.241V55.7305L325.107 53.8389C326.834 52.144 327.316 51.3252 327.329 50.2969C327.316 48.8052 326.091 47.6816 324.32 47.6816C322.568 47.6816 321.286 48.7925 321.299 50.4746H322.619C322.625 49.4971 323.273 48.8496 324.295 48.8496C325.26 48.8496 325.996 49.4272 325.996 50.335C325.996 51.1411 325.495 51.7251 324.485 52.7725L321.299 55.9844V57Z" fill="white"/>
<path fill-rule="evenodd" clip-rule="evenodd" d="M88.1206 0C73.6946 0 62 11.6946 62 26.1205H67.5532C67.5532 14.7615 76.7615 5.55318 88.1206 5.55318C88.1206 5.55318 88.1206 5.55318 88.1206 5.55318L88.1206 0Z" fill="#8B7AF6"/>
<circle cx="88.2234" cy="2.7766" r="2.7766" fill="#8B7AF6"/>
<circle cx="64.7766" cy="26.2234" r="2.7766" fill="#8B7AF6"/>
<path fill-rule="evenodd" clip-rule="evenodd" d="M308.121 0C293.695 0 282 11.6946 282 26.1205H287.553C287.553 14.7615 296.762 5.55318 308.121 5.55318C308.121 5.55318 308.121 5.55318 308.121 5.55318L308.121 0Z" fill="#8B7AF6"/>
<circle cx="308.223" cy="2.7766" r="2.7766" fill="#8B7AF6"/>
<circle cx="284.777" cy="26.2234" r="2.7766" fill="#8B7AF6"/>
<path fill-rule="evenodd" clip-rule="evenodd" d="M12 26.1206C12 11.6946 0.305446 2.11358e-05 -14.1205 -1.14176e-06L-14.1205 5.55318C-2.76149 5.5532 6.44682 14.7615 6.44682 26.1206C6.44682 26.1206 6.44682 26.1206 6.44682 26.1206L12 26.1206Z" fill="#ECECEC"/>
<circle cx="9.2234" cy="26.2234" r="2.7766" transform="rotate(90 9.2234 26.2234)" fill="#ECECEC"/>
<path fill-rule="evenodd" clip-rule="evenodd" d="M232 26.1206C232 11.6946 220.305 2.11358e-05 205.879 -1.14176e-06L205.879 5.55318C217.239 5.5532 226.447 14.7615 226.447 26.1206C226.447 26.1206 226.447 26.1206 226.447 26.1206L232 26.1206Z" fill="#8B7AF6"/>
<circle cx="229.223" cy="26.2234" r="2.7766" transform="rotate(90 229.223 26.2234)" fill="#8B7AF6"/>
<circle cx="205.777" cy="2.7766" r="2.7766" transform="rotate(90 205.777 2.7766)" fill="#8B7AF6"/>
<path fill-rule="evenodd" clip-rule="evenodd" d="M122 26.1206C122 11.6946 110.305 2.11358e-05 95.8795 -1.14176e-06L95.8795 5.55318C107.239 5.5532 116.447 14.7615 116.447 26.1206C116.447 26.1206 116.447 26.1206 116.447 26.1206L122 26.1206Z" fill="#8B7AF6"/>
<circle cx="119.223" cy="26.2234" r="2.7766" transform="rotate(90 119.223 26.2234)" fill="#8B7AF6"/>
<circle cx="95.7766" cy="2.7766" r="2.7766" transform="rotate(90 95.7766 2.7766)" fill="#8B7AF6"/>
<path fill-rule="evenodd" clip-rule="evenodd" d="M88.1206 0C73.6946 0 62 11.6946 62 26.1205H67.5532C67.5532 14.7615 76.7615 5.55318 88.1206 5.55318C88.1206 5.55318 88.1206 5.55318 88.1206 5.55318L88.1206 0Z" fill="#8B7AF6"/>
<circle cx="88.2234" cy="2.7766" r="2.7766" fill="#8B7AF6"/>
<circle cx="64.7766" cy="26.2234" r="2.7766" fill="#8B7AF6"/>
<path fill-rule="evenodd" clip-rule="evenodd" d="M308.121 0C293.695 0 282 11.6946 282 26.1205H287.553C287.553 14.7615 296.762 5.55318 308.121 5.55318C308.121 5.55318 308.121 5.55318 308.121 5.55318L308.121 0Z" fill="#03B26C"/>
<circle cx="308.223" cy="2.7766" r="2.7766" fill="#03B26C"/>
<circle cx="284.777" cy="26.2234" r="2.7766" fill="#03B26C"/>
<path fill-rule="evenodd" clip-rule="evenodd" d="M308.816 7C297.872 7 289 15.8717 289 26.8156C289 26.8157 289 26.8157 289 26.8158H293.213C293.213 26.8157 293.213 26.8157 293.213 26.8156C293.213 18.1984 300.198 11.2128 308.816 11.2128L308.816 7Z" fill="#8B7AF6"/>
<circle cx="308.894" cy="9.10638" r="2.10638" fill="#8B7AF6"/>
<circle cx="291.106" cy="26.8935" r="2.10638" fill="#8B7AF6"/>
<path fill-rule="evenodd" clip-rule="evenodd" d="M309.411 13C301.452 13 295 19.4522 295 27.4113C295 27.4114 295 27.4114 295 27.4114H298.064C298.064 21.1443 303.144 16.0639 309.411 16.0639V13Z" fill="#8B7AF6"/>
<circle cx="309.468" cy="14.5319" r="1.53191" fill="#8B7AF6"/>
<circle cx="296.532" cy="27.468" r="1.53191" fill="#8B7AF6"/>
<path fill-rule="evenodd" clip-rule="evenodd" d="M335 26.8156C335 15.8717 326.128 7 315.184 7C315.184 7 315.184 7 315.184 7L315.184 11.2128C315.184 11.2128 315.184 11.2128 315.184 11.2128C323.802 11.2128 330.787 18.1984 330.787 26.8156L335 26.8156Z" fill="#E5E1FE"/>
<circle cx="332.894" cy="26.8935" r="2.10638" transform="rotate(90 332.894 26.8935)" fill="#E5E1FE"/>
<circle cx="315.106" cy="9.10638" r="2.10638" transform="rotate(90 315.106 9.10638)" fill="#E5E1FE"/>
<path fill-rule="evenodd" clip-rule="evenodd" d="M309.908 18C304.436 18 300 22.4359 300 27.9078C300 27.9078 300 27.9078 300 27.9078H302.106C302.106 23.5993 305.599 20.1065 309.908 20.1065V18Z" fill="#E5E1FE"/>
<circle cx="309.947" cy="19.0532" r="1.05319" fill="#E5E1FE"/>
<circle cx="301.053" cy="27.9467" r="1.05319" fill="#E5E1FE"/>
<path fill-rule="evenodd" clip-rule="evenodd" d="M198.816 7C187.872 7 179 15.8717 179 26.8156C179 26.8157 179 26.8157 179 26.8158H183.213C183.213 26.8157 183.213 26.8157 183.213 26.8156C183.213 18.1984 190.198 11.2128 198.816 11.2128L198.816 7Z" fill="#E5E1FE"/>
<circle cx="198.894" cy="9.10638" r="2.10638" fill="#E5E1FE"/>
<circle cx="181.106" cy="26.8935" r="2.10638" fill="#E5E1FE"/>
<path fill-rule="evenodd" clip-rule="evenodd" d="M150.184 53C161.128 53 170 44.1283 170 33.1844C170 33.1843 170 33.1843 170 33.1842L165.787 33.1842C165.787 33.1843 165.787 33.1843 165.787 33.1844C165.787 41.8016 158.802 48.7872 150.184 48.7872L150.184 53Z" fill="#E5E1FE"/>
<circle cx="150.106" cy="50.8936" r="2.10638" transform="rotate(-180 150.106 50.8936)" fill="#E5E1FE"/>
<circle cx="167.894" cy="33.1065" r="2.10638" transform="rotate(-180 167.894 33.1065)" fill="#E5E1FE"/>
<path fill-rule="evenodd" clip-rule="evenodd" d="M232 26.1206C232 11.6946 220.305 2.11358e-05 205.879 -1.14176e-06L205.879 5.55318C217.239 5.5532 226.447 14.7615 226.447 26.1206C226.447 26.1206 226.447 26.1206 226.447 26.1206L232 26.1206Z" fill="#8B7AF6"/>
<circle cx="229.223" cy="26.2234" r="2.7766" transform="rotate(90 229.223 26.2234)" fill="#8B7AF6"/>
<circle cx="205.777" cy="2.7766" r="2.7766" transform="rotate(90 205.777 2.7766)" fill="#8B7AF6"/>
<path fill-rule="evenodd" clip-rule="evenodd" d="M225 26.8156C225 15.8717 216.128 7 205.184 7C205.184 7 205.184 7 205.184 7L205.184 11.2128C205.184 11.2128 205.184 11.2128 205.184 11.2128C213.802 11.2128 220.787 18.1984 220.787 26.8156L225 26.8156Z" fill="#E5E1FE"/>
<circle cx="222.894" cy="26.8935" r="2.10638" transform="rotate(90 222.894 26.8935)" fill="#E5E1FE"/>
<circle cx="205.106" cy="9.10638" r="2.10638" transform="rotate(90 205.106 9.10638)" fill="#E5E1FE"/>
<path fill-rule="evenodd" clip-rule="evenodd" d="M219 27.4113C219 19.4522 212.548 13 204.589 13C204.589 13 204.589 13 204.589 13L204.589 16.0638C210.856 16.0639 215.936 21.1443 215.936 27.4113L219 27.4113Z" fill="#8B7AF6"/>
<circle cx="217.468" cy="27.4682" r="1.53191" transform="rotate(90 217.468 27.4682)" fill="#8B7AF6"/>
<circle cx="204.532" cy="14.5319" r="1.53191" transform="rotate(90 204.532 14.5319)" fill="#8B7AF6"/>
<path fill-rule="evenodd" clip-rule="evenodd" d="M117 33.8794C117 48.3054 128.695 60 143.121 60L143.121 54.4468C131.761 54.4468 122.553 45.2385 122.553 33.8794C122.553 33.8794 122.553 33.8794 122.553 33.8794L117 33.8794Z" fill="#8B7AF6"/>
<circle cx="119.777" cy="33.7766" r="2.7766" transform="rotate(-90 119.777 33.7766)" fill="#8B7AF6"/>
<circle cx="143.223" cy="57.2234" r="2.7766" transform="rotate(-90 143.223 57.2234)" fill="#8B7AF6"/>
<path fill-rule="evenodd" clip-rule="evenodd" d="M124 33.1844C124 44.1283 132.872 53 143.816 53C143.816 53 143.816 53 143.816 53L143.816 48.7872C143.816 48.7872 143.816 48.7872 143.816 48.7872C135.198 48.7872 128.213 41.8016 128.213 33.1844L124 33.1844Z" fill="#8B7AF6"/>
<circle cx="126.106" cy="33.1065" r="2.10638" transform="rotate(-90 126.106 33.1065)" fill="#8B7AF6"/>
<circle cx="143.894" cy="50.8936" r="2.10638" transform="rotate(-90 143.894 50.8936)" fill="#8B7AF6"/>
<path fill-rule="evenodd" clip-rule="evenodd" d="M130 32.5887C130 40.5478 136.452 47 144.411 47C144.411 47 144.411 47 144.411 47L144.411 43.9362C138.144 43.9361 133.064 38.8557 133.064 32.5887L130 32.5887Z" fill="#E5E1FE"/>
<circle cx="131.532" cy="32.5318" r="1.53191" transform="rotate(-90 131.532 32.5318)" fill="#E5E1FE"/>
<circle cx="144.468" cy="45.4681" r="1.53191" transform="rotate(-90 144.468 45.4681)" fill="#E5E1FE"/>
<path fill-rule="evenodd" clip-rule="evenodd" d="M198.121 0C183.695 0 172 11.6946 172 26.1205H177.553C177.553 14.7615 186.762 5.55318 198.121 5.55318C198.121 5.55318 198.121 5.55318 198.121 5.55318L198.121 0Z" fill="#8B7AF6"/>
<circle cx="198.223" cy="2.7766" r="2.7766" fill="#8B7AF6"/>
<circle cx="174.777" cy="26.2234" r="2.7766" fill="#8B7AF6"/>
<path fill-rule="evenodd" clip-rule="evenodd" d="M12 26.1206C12 11.6946 0.305446 2.11358e-05 -14.1205 -1.14176e-06L-14.1205 5.55318C-2.76149 5.5532 6.44682 14.7615 6.44682 26.1206C6.44682 26.1206 6.44682 26.1206 6.44682 26.1206L12 26.1206Z" fill="#ECECEC"/>
<circle cx="9.2234" cy="26.2234" r="2.7766" transform="rotate(90 9.2234 26.2234)" fill="#ECECEC"/>
<path fill-rule="evenodd" clip-rule="evenodd" d="M342 26.1206C342 11.6946 330.305 2.11358e-05 315.879 -1.14176e-06L315.879 5.55318C327.239 5.5532 336.447 14.7615 336.447 26.1206C336.447 26.1206 336.447 26.1206 336.447 26.1206L342 26.1206Z" fill="#8B7AF6"/>
<circle cx="339.223" cy="26.2234" r="2.7766" transform="rotate(90 339.223 26.2234)" fill="#8B7AF6"/>
<circle cx="315.777" cy="2.7766" r="2.7766" transform="rotate(90 315.777 2.7766)" fill="#8B7AF6"/>
<path fill-rule="evenodd" clip-rule="evenodd" d="M122 26.1206C122 11.6946 110.305 2.11358e-05 95.8795 -1.14176e-06L95.8795 5.55318C107.239 5.5532 116.447 14.7615 116.447 26.1206C116.447 26.1206 116.447 26.1206 116.447 26.1206L122 26.1206Z" fill="#8B7AF6"/>
<circle cx="119.223" cy="26.2234" r="2.7766" transform="rotate(90 119.223 26.2234)" fill="#8B7AF6"/>
<circle cx="95.7766" cy="2.7766" r="2.7766" transform="rotate(90 95.7766 2.7766)" fill="#8B7AF6"/>
<path fill-rule="evenodd" clip-rule="evenodd" d="M40.8794 60C55.3054 60 67 48.3054 67 33.8795L61.4468 33.8795C61.4468 45.2385 52.2385 54.4468 40.8794 54.4468C40.8794 54.4468 40.8794 54.4468 40.8794 54.4468L40.8794 60Z" fill="#ECECEC"/>
<circle cx="40.7766" cy="57.2234" r="2.7766" transform="rotate(-180 40.7766 57.2234)" fill="#ECECEC"/>
<circle cx="64.2234" cy="33.7766" r="2.7766" transform="rotate(-180 64.2234 33.7766)" fill="#ECECEC"/>
<path fill-rule="evenodd" clip-rule="evenodd" d="M260.879 60C275.305 60 287 48.3054 287 33.8795L281.447 33.8795C281.447 45.2385 272.238 54.4468 260.879 54.4468C260.879 54.4468 260.879 54.4468 260.879 54.4468L260.879 60Z" fill="#03B26C"/>
<circle cx="260.777" cy="57.2234" r="2.7766" transform="rotate(-180 260.777 57.2234)" fill="#03B26C"/>
<circle cx="284.223" cy="33.7766" r="2.7766" transform="rotate(-180 284.223 33.7766)" fill="#03B26C"/>
<path fill-rule="evenodd" clip-rule="evenodd" d="M150.879 60C165.305 60 177 48.3054 177 33.8795L171.447 33.8795C171.447 45.2385 162.238 54.4468 150.879 54.4468C150.879 54.4468 150.879 54.4468 150.879 54.4468L150.879 60Z" fill="#8B7AF6"/>
<circle cx="150.777" cy="57.2234" r="2.7766" transform="rotate(-180 150.777 57.2234)" fill="#8B7AF6"/>
<circle cx="174.223" cy="33.7766" r="2.7766" transform="rotate(-180 174.223 33.7766)" fill="#8B7AF6"/>
<path fill-rule="evenodd" clip-rule="evenodd" d="M7 33.8794C7 48.3054 18.6946 60 33.1205 60L33.1205 54.4468C21.7615 54.4468 12.5532 45.2385 12.5532 33.8794C12.5532 33.8794 12.5532 33.8794 12.5532 33.8794L7 33.8794Z" fill="#ECECEC"/>
<circle cx="9.7766" cy="33.7766" r="2.7766" transform="rotate(-90 9.7766 33.7766)" fill="#ECECEC"/>
<circle cx="33.2234" cy="57.2234" r="2.7766" transform="rotate(-90 33.2234 57.2234)" fill="#ECECEC"/>
<path fill-rule="evenodd" clip-rule="evenodd" d="M227 33.8794C227 48.3054 238.695 60 253.121 60L253.121 54.4468C241.761 54.4468 232.553 45.2385 232.553 33.8794C232.553 33.8794 232.553 33.8794 232.553 33.8794L227 33.8794Z" fill="#ECECEC"/>
<circle cx="229.777" cy="33.7766" r="2.7766" transform="rotate(-90 229.777 33.7766)" fill="#ECECEC"/>
<circle cx="253.223" cy="57.2234" r="2.7766" transform="rotate(-90 253.223 57.2234)" fill="#ECECEC"/>
<path fill-rule="evenodd" clip-rule="evenodd" d="M337 33.8794C337 48.3054 348.695 60 363.121 60L363.121 54.4468C351.761 54.4468 342.553 45.2385 342.553 33.8794C342.553 33.8794 342.553 33.8794 342.553 33.8794L337 33.8794Z" fill="#E5E1FE"/>
<circle cx="339.777" cy="33.7766" r="2.7766" transform="rotate(-90 339.777 33.7766)" fill="#E5E1FE"/>
<circle cx="363.223" cy="57.2234" r="2.7766" transform="rotate(-90 363.223 57.2234)" fill="#E5E1FE"/>
</svg>
