<svg width="24" height="24" viewBox="0 0 24 24" fill="none" xmlns="http://www.w3.org/2000/svg">
<path fill-rule="evenodd" clip-rule="evenodd" d="M21.21 16.1051L19.677 15.3381L13.565 18.3941C13.0789 18.6363 12.5431 18.7619 12 18.7611C11.4569 18.7618 10.9211 18.6362 10.435 18.3941L4.32298 15.3381L2.78898 16.1051C2.62257 16.1881 2.48258 16.3158 2.38473 16.4739C2.28688 16.632 2.23505 16.8142 2.23505 17.0001C2.23505 17.1861 2.28688 17.3683 2.38473 17.5264C2.48258 17.6845 2.62257 17.8122 2.78898 17.8951L11.106 22.0521C11.3836 22.1912 11.6899 22.2637 12.0005 22.2637C12.311 22.2637 12.6173 22.1912 12.895 22.0521L21.211 17.8941C21.3771 17.8111 21.5169 17.6834 21.6145 17.5254C21.7122 17.3674 21.7639 17.1854 21.7639 16.9996C21.7639 16.8139 21.7122 16.6318 21.6145 16.4738C21.5169 16.3158 21.3771 16.1882 21.211 16.1051" fill="#B0B8C1"/>
<path fill-rule="evenodd" clip-rule="evenodd" d="M21.21 11.1051L19.677 10.3381L13.565 13.3941C13.0789 13.6363 12.5431 13.7619 12 13.7611C11.4569 13.7618 10.9211 13.6362 10.435 13.3941L4.32298 10.3381L2.78898 11.1051C2.62257 11.1881 2.48258 11.3158 2.38473 11.4739C2.28688 11.632 2.23505 11.8142 2.23505 12.0001C2.23505 12.1861 2.28688 12.3683 2.38473 12.5264C2.48258 12.6845 2.62257 12.8122 2.78898 12.8951L11.106 17.0521C11.3836 17.1912 11.6899 17.2637 12.0005 17.2637C12.311 17.2637 12.6173 17.1912 12.895 17.0521L21.211 12.8941C21.3771 12.8111 21.5169 12.6834 21.6145 12.5254C21.7122 12.3674 21.7639 12.1854 21.7639 11.9996C21.7639 11.8139 21.7122 11.6318 21.6145 11.4738C21.5169 11.3158 21.3771 11.1882 21.211 11.1051" fill="#B0B8C1"/>
<path fill-rule="evenodd" clip-rule="evenodd" d="M11.106 12.0531L2.78997 7.89411C2.62409 7.81097 2.48461 7.68332 2.38714 7.52543C2.28966 7.36755 2.23804 7.18566 2.23804 7.00011C2.23804 6.81456 2.28966 6.63267 2.38714 6.47478C2.48461 6.3169 2.62409 6.18925 2.78997 6.10611L11.106 1.94811C11.3836 1.809 11.6899 1.73657 12.0005 1.73657C12.311 1.73657 12.6173 1.809 12.895 1.94811L21.211 6.10611C21.3771 6.18915 21.5168 6.31682 21.6145 6.47481C21.7122 6.6328 21.7639 6.81487 21.7639 7.00061C21.7639 7.18635 21.7122 7.36842 21.6145 7.52641C21.5168 7.6844 21.3771 7.81207 21.211 7.89511L12.895 12.0531C12.617 12.1918 12.3106 12.2641 12 12.2641C11.6893 12.2641 11.3829 12.1918 11.105 12.0531" fill="#B0B8C1"/>
</svg>
