<svg width="11" height="11" viewBox="0 0 11 11" fill="none" xmlns="http://www.w3.org/2000/svg">
<path fill-rule="evenodd" clip-rule="evenodd" d="M5.55732 4.22803C4.82398 4.22803 4.22815 4.82386 4.22815 5.55719C4.22815 6.29053 4.82398 6.88636 5.55732 6.88636C6.29065 6.88636 6.88648 6.29053 6.88648 5.55719C6.88648 4.82386 6.29065 4.22803 5.55732 4.22803Z" fill="#6F6F6F"/>
<path fill-rule="evenodd" clip-rule="evenodd" d="M5.55729 7.84891C4.27396 7.84891 3.26562 6.79474 3.26562 5.55724C3.26562 4.31974 4.31979 3.26558 5.55729 3.26558C6.79479 3.26558 7.84896 4.31974 7.84896 5.55724C7.84896 6.79474 6.84062 7.84891 5.55729 7.84891ZM10.599 4.96141C9.40729 3.12808 7.52812 2.02808 5.55729 2.02808C3.58646 2.02808 1.70729 3.12808 0.515625 4.96141C0.286458 5.32808 0.286458 5.78641 0.515625 6.15308C1.70729 7.98641 3.58646 9.08641 5.55729 9.08641C7.52812 9.08641 9.40729 7.98641 10.599 6.15308C10.874 5.78641 10.874 5.32808 10.599 4.96141Z" fill="#6F6F6F"/>
</svg>
