<svg width="24" height="24" viewBox="0 0 24 24" fill="none" xmlns="http://www.w3.org/2000/svg">
<path fill-rule="evenodd" clip-rule="evenodd" d="M21.069 8.20395L12.622 1.48695C12.4453 1.3461 12.226 1.26941 12 1.26941C11.774 1.26941 11.5547 1.3461 11.378 1.48695L2.92999 8.20395C2.69454 8.39123 2.50437 8.62921 2.37365 8.90017C2.24293 9.17114 2.17502 9.4681 2.17499 9.76895V19.1869C2.17499 19.8235 2.42784 20.4339 2.87793 20.884C3.32802 21.3341 3.93847 21.5869 4.57499 21.5869H9.99999V16.8349C9.99999 16.5697 10.1053 16.3154 10.2929 16.1278C10.4804 15.9403 10.7348 15.8349 11 15.8349H13C13.2652 15.8349 13.5196 15.9403 13.7071 16.1278C13.8946 16.3154 14 16.5697 14 16.8349V21.5869H19.424C20.0605 21.5869 20.671 21.3341 21.121 20.884C21.5711 20.4339 21.824 19.8235 21.824 19.1869V9.76995C21.824 9.4691 21.756 9.17214 21.6253 8.90117C21.4946 8.63021 21.3044 8.39223 21.069 8.20495" fill="#B0B8C1"/>
</svg>
