<svg width="34" height="34" viewBox="0 0 34 34" fill="none" xmlns="http://www.w3.org/2000/svg">
<path fill-rule="evenodd" clip-rule="evenodd" d="M22.0332 10.2697L17.0834 15.2194L12.1337 10.2697C11.9086 10.0447 11.6034 9.91823 11.2851 9.91823C10.9669 9.91823 10.6616 10.0447 10.4366 10.2697C10.2116 10.4947 10.0851 10.8 10.0851 11.1182C10.0851 11.4365 10.2116 11.7417 10.4366 11.9668L15.3863 16.9165L10.4366 21.8663C10.2116 22.0913 10.0851 22.3965 10.0851 22.7148C10.0851 23.033 10.2116 23.3383 10.4366 23.5633C10.6616 23.7884 10.9669 23.9148 11.2851 23.9148C11.6034 23.9148 11.9086 23.7884 12.1337 23.5633L17.0834 18.6136L22.0332 23.5633C22.2582 23.7884 22.5634 23.9148 22.8817 23.9148C23.1999 23.9148 23.5052 23.7884 23.7302 23.5633C23.9552 23.3383 24.0817 23.033 24.0817 22.7148C24.0817 22.3965 23.9552 22.0913 23.7302 21.8663L18.7805 16.9165L23.7302 11.9668C23.9552 11.7417 24.0817 11.4365 24.0817 11.1182C24.0817 10.8 23.9552 10.4947 23.7302 10.2697C23.5052 10.0447 23.1999 9.91823 22.8817 9.91823C22.5634 9.91823 22.2582 10.0447 22.0332 10.2697" fill="#6F6F6F"/>
</svg>
