<svg width="24" height="24" viewBox="0 0 24 24" fill="none" xmlns="http://www.w3.org/2000/svg">
<path d="M21.849 20.1509L17.242 15.544C18.327 14.106 18.978 12.3239 18.978 10.3879C18.978 5.65195 15.124 1.79895 10.389 1.79895C5.65299 1.79995 1.79999 5.65295 1.79999 10.389C1.79999 15.124 5.65299 18.978 10.389 18.978C12.324 18.978 14.107 18.327 15.545 17.242L20.152 21.849C20.386 22.083 20.693 22.2 21 22.2C21.307 22.2 21.614 22.0829 21.849 21.8479C22.317 21.3799 22.317 20.6199 21.849 20.1509ZM4.19999 10.389C4.19999 6.97595 6.97599 4.19995 10.389 4.19995C13.801 4.19995 16.577 6.97595 16.577 10.3879C16.577 13.7999 13.801 16.576 10.389 16.576C6.97599 16.577 4.19999 13.801 4.19999 10.389V10.389Z" fill="#6F6F6F"/>
</svg>
