<svg width="24" height="24" viewBox="0 0 24 24" fill="none" xmlns="http://www.w3.org/2000/svg">
<path fill-rule="evenodd" clip-rule="evenodd" d="M20.318 10.8001H13.318V3.8001C13.318 3.48184 13.1916 3.17661 12.9665 2.95157C12.7415 2.72653 12.4363 2.6001 12.118 2.6001C11.7998 2.6001 11.4945 2.72653 11.2695 2.95157C11.0444 3.17661 10.918 3.48184 10.918 3.8001V10.8001H3.91802C3.59976 10.8001 3.29453 10.9265 3.06949 11.1516C2.84445 11.3766 2.71802 11.6818 2.71802 12.0001C2.71802 12.3184 2.84445 12.6236 3.06949 12.8486C3.29453 13.0737 3.59976 13.2001 3.91802 13.2001H10.918V20.2001C10.918 20.5184 11.0444 20.8236 11.2695 21.0486C11.4945 21.2737 11.7998 21.4001 12.118 21.4001C12.4363 21.4001 12.7415 21.2737 12.9665 21.0486C13.1916 20.8236 13.318 20.5184 13.318 20.2001V13.2001H20.318C20.6363 13.2001 20.9415 13.0737 21.1665 12.8486C21.3916 12.6236 21.518 12.3184 21.518 12.0001C21.518 11.6818 21.3916 11.3766 21.1665 11.1516C20.9415 10.9265 20.6363 10.8001 20.318 10.8001Z" fill="#6F6F6F"/>
</svg>
