<svg width="11" height="11" viewBox="0 0 11 11" fill="none" xmlns="http://www.w3.org/2000/svg">
<path fill-rule="evenodd" clip-rule="evenodd" d="M4.99762 9.86657C5.30287 10.0682 5.69657 10.0682 6.00137 9.86657C6.97074 9.22674 9.08137 7.69728 9.9907 5.98586C11.1892 3.72811 9.7817 1.47632 7.92087 1.47632C6.86028 1.47632 6.22228 2.03044 5.86937 2.50665C5.82698 2.56498 5.77139 2.61244 5.70714 2.64517C5.6429 2.6779 5.57182 2.69496 5.49972 2.69496C5.42762 2.69496 5.35654 2.6779 5.2923 2.64517C5.22805 2.61244 5.17246 2.56498 5.13007 2.50665C4.77716 2.03044 4.13916 1.47632 3.07857 1.47632C1.21774 1.47632 -0.189801 3.72811 1.0092 5.98586C1.91762 7.69728 4.02916 9.22674 4.99762 9.86657" fill="#6F6F6F"/>
</svg>
